<svg width="180" height="180" viewBox="0 0 144 144" fill="none" xmlns="http://www.w3.org/2000/svg">
<rect width="180" height="180" fill="#0D0D23"/>
<path fill-rule="evenodd" clip-rule="evenodd" d="M9 104.329H33.2954L44.0066 75.7644L55.2912 96.2783C55.2912 96.2783 59.3165 104.329 65.3545 104.329H84.676C78.6381 104.329 74.6125 96.2783 74.6125 96.2783L51.8403 54.8732L46.2741 44.7506C46.2741 44.7506 44.0203 39.9199 38.7874 39.9199C33.1519 39.9199 31.3405 44.7506 31.3405 44.7506L9 104.329ZM106.013 39.9199H85.0809L77.4185 60.0221L89.4383 83.3964L106.013 39.9199Z" fill="white"/>
<path d="M46.0404 39.9199C51.2733 39.9199 53.5271 44.7506 53.5271 44.7506L81.8656 96.2783C81.8656 96.2783 85.8911 104.329 91.9291 104.329H110.446L135 39.9199H112.458L97.1334 80.1243L77.679 44.7506C77.679 44.7506 75.4253 39.9199 70.1923 39.9199H46.0404Z" fill="#FF2885"/>
</svg>
