<svg xmlns="http://www.w3.org/2000/svg" width="382" height="102" fill="none"><path fill="#fff" d="M357.128 74.159C352.422 74.159 348.178 73.1474 344.396 71.1244 340.613 69.0574 337.645 66.2207 335.49 62.6144 333.335 58.9641 332.257 54.896 332.257 50.4101 332.257 45.9242 333.335 41.8781 335.49 38.2718 337.645 34.6215 340.613 31.7849 344.396 29.7618 348.178 27.6948 352.422 26.6613 357.128 26.6613 361.833 26.6613 366.077 27.6948 369.86 29.7618 373.642 31.7849 376.61 34.5995 378.765 38.2058 380.92 41.8121 381.998 45.8802 381.998 50.4101 381.998 54.94 380.92 59.0081 378.765 62.6144 376.61 66.2207 373.642 69.0574 369.86 71.1244 366.077 73.1474 361.833 74.159 357.128 74.159ZM357.128 66.6385C360.206 66.6385 362.977 65.9568 365.44 64.5935 367.903 63.1861 369.838 61.251 371.245 58.7882 372.652 56.2814 373.356 53.4887 373.356 50.4101 373.356 47.3316 372.652 44.5609 371.245 42.098 369.838 39.5912 367.903 37.6561 365.44 36.2927 362.977 34.8854 360.206 34.1817 357.128 34.1817 354.049 34.1817 351.278 34.8854 348.816 36.2927 346.353 37.6561 344.418 39.5912 343.01 42.098 341.603 44.5609 340.899 47.3316 340.899 50.4101 340.899 53.4887 341.603 56.2814 343.01 58.7882 344.418 61.251 346.353 63.1861 348.816 64.5935 351.278 65.9568 354.049 66.6385 357.128 66.6385ZM324.338 27.3209V73.4993H317.279L291.815 42.2299V73.4993H283.305V27.3209H290.364L315.828 58.5903V27.3209H324.338ZM265.123 27.3209H273.699V73.4993H265.123V27.3209ZM239.103 74.159C235.541 74.159 232.089 73.6532 228.746 72.6417 225.448 71.6302 222.831 70.2888 220.896 68.6176L223.865 61.9547C225.756 63.45 228.065 64.6814 230.791 65.649 233.562 66.5725 236.333 67.0343 239.103 67.0343 242.534 67.0343 245.085 66.4846 246.756 65.3851 248.471 64.2856 249.329 62.8343 249.329 61.0311 249.329 59.7117 248.845 58.6343 247.877 57.7986 246.954 56.9191 245.766 56.2374 244.315 55.7536 242.864 55.2698 240.885 54.7201 238.378 54.1044 234.859 53.2688 232.001 52.4332 229.802 51.5976 227.647 50.7619 225.778 49.4646 224.194 47.7054 222.655 45.9022 221.886 43.4834 221.886 40.4488 221.886 37.898 222.567 35.5891 223.931 33.522 225.338 31.411 227.427 29.7398 230.198 28.5084 233.012 27.277 236.443 26.6613 240.489 26.6613 243.303 26.6613 246.074 27.0131 248.801 27.7168 251.528 28.4204 253.881 29.432 255.86 30.7513L253.155 37.4142C251.132 36.2268 249.021 35.3252 246.822 34.7095 244.623 34.0938 242.49 33.7859 240.423 33.7859 237.036 33.7859 234.508 34.3576 232.836 35.5011 231.209 36.6446 230.396 38.1619 230.396 40.053 230.396 41.3724 230.857 42.4498 231.781 43.2855 232.748 44.1211 233.958 44.7808 235.409 45.2645 236.86 45.7483 238.84 46.298 241.346 46.9138 244.777 47.7054 247.591 48.541 249.79 49.4206 251.989 50.2562 253.859 51.5536 255.398 53.3127 256.981 55.0719 257.773 57.4468 257.773 60.4374 257.773 62.9882 257.069 65.2971 255.662 67.3642 254.298 69.4312 252.209 71.0804 249.395 72.3118 246.58 73.5433 243.15 74.159 239.103 74.159ZM202.441 62.8123H179.352L174.8 73.4993H165.96L186.74 27.3209H195.184L216.03 73.4993H207.059L202.441 62.8123ZM199.604 56.0834 190.896 35.8969 182.254 56.0834H199.604ZM144.015 74.159C139.353 74.159 135.131 73.1474 131.349 71.1244 127.611 69.0574 124.664 66.2207 122.509 62.6144 120.398 59.0081 119.343 54.94 119.343 50.4101 119.343 45.8802 120.42 41.8121 122.575 38.2058 124.73 34.5995 127.677 31.7849 131.415 29.7618 135.197 27.6948 139.419 26.6613 144.081 26.6613 147.863 26.6613 151.316 27.3209 154.438 28.6403 157.561 29.9597 160.2 31.8728 162.355 34.3796L156.813 39.5912C153.471 35.9849 149.359 34.1817 144.477 34.1817 141.31 34.1817 138.474 34.8854 135.967 36.2927 133.46 37.6561 131.503 39.5692 130.096 42.032 128.688 44.4949 127.985 47.2876 127.985 50.4101 127.985 53.5326 128.688 56.3253 130.096 58.7882 131.503 61.251 133.46 63.1861 135.967 64.5935 138.474 65.9568 141.31 66.6385 144.477 66.6385 149.359 66.6385 153.471 64.8134 156.813 61.1631L162.355 66.4406C160.2 68.9474 157.539 70.8605 154.372 72.1799 151.25 73.4993 147.797 74.159 144.015 74.159Z"/><path fill="#fff" fill-rule="evenodd" d="M-0.000732422 78.3502H21.0786L30.3719 53.5681L40.1628 71.3653C40.1628 71.3653 43.6553 78.3502 48.894 78.3502H65.6579C60.4192 78.3502 56.9265 71.3653 56.9265 71.3653L37.1686 35.4435L32.3393 26.6616C32.3393 26.6616 30.3838 22.4706 25.8436 22.4706C20.9541 22.4706 19.3825 26.6616 19.3825 26.6616L-0.000732422 78.3502ZM84.168 22.4706H66.0072L59.359 39.9106L69.7878 60.1894L84.168 22.4706Z" clip-rule="evenodd"/><path fill="#FF2885" d="M32.1301 22.4706C36.6703 22.4706 38.6258 26.6616 38.6258 26.6616L63.213 71.3653C63.213 71.3653 66.7057 78.3502 71.9444 78.3502H88.0098L109.314 22.4706H89.756L76.4598 57.3506L59.5807 26.6616C59.5807 26.6616 57.6252 22.4706 53.085 22.4706H32.1301Z"/></svg>